<?xml version="1.0" encoding="utf-8"?>
<!-- Generator: Adobe Illustrator 16.0.0, SVG Export Plug-In . SVG Version: 6.00 Build 0)  -->
<!DOCTYPE svg PUBLIC "-//W3C//DTD SVG 1.1//EN" "http://www.w3.org/Graphics/SVG/1.1/DTD/svg11.dtd">
<svg version="1.1" xmlns="http://www.w3.org/2000/svg" xmlns:xlink="http://www.w3.org/1999/xlink" x="0px" y="0px" width="1050px"
	 height="748.89px" viewBox="0 0 1050 748.89" enable-background="new 0 0 1050 748.89" xml:space="preserve">
<g id="Layer_3">
	<radialGradient id="SVGID_1_" cx="525" cy="222.5381" r="525" gradientUnits="userSpaceOnUse">
		<stop  offset="0" style="stop-color:#FFFFFF"/>
		<stop  offset="1" style="stop-color:#FFFFFF;stop-opacity:0"/>
	</radialGradient>
	<circle fill="url(#SVGID_1_)" cx="525" cy="222.538" r="525"/>
	<g>
		<path fill-rule="evenodd" clip-rule="evenodd" d="M874.52,388.044c0-7.006,0-11.837,0-16.901
			c6.47-1.807,12.386-3.465,17.534-4.904c7.917-7.351,8.31-16.225,8.361-25.093c0.133-22.713,0.141-45.428,0.141-68.141
			c-0.008-21.735,4.708-41.257,26.439-53.594c-21.994-12.515-26.151-32.451-26.351-54.061c-0.215-23.342-0.052-46.688-0.238-70.033
			c-0.069-8.869-0.339-17.841-9.112-24.774c-4.534-0.771-10.001-1.699-16.397-2.784c0-5.575,0-11.012,0-16.416
			c33.543-8.892,54.469,6.732,54.891,41.157c0.273,22.08,0.014,44.167,0.103,66.25c0.023,5.667-0.276,11.489,0.862,16.972
			c3.154,15.195,7.741,29.723,25.408,34.361c0.3,6,0.547,10.934,0.836,16.671c-21.599,9.684-27.025,28.287-27.092,49.646
			c-0.074,22.712,0.46,45.444-0.317,68.134c-0.296,8.547-2.28,17.537-5.712,25.359c-5.186,11.822-15.228,18.129-28.59,18.151
			C889.015,388.052,882.74,388.044,874.52,388.044z"/>
		<path fill-rule="evenodd" clip-rule="evenodd" d="M93.004,227.976c0-6.118,0-10.497,0-14.616c0.936-1.211,1.469-2.618,2.436-3.04
			c17.234-7.566,23.853-21.672,24.082-39.458c0.267-20.843,0.163-41.69,0.214-62.533c0.008-4.424-0.111-8.847,0.022-13.267
			c1.052-35.342,17.435-49.149,54.857-45.003c0.444,5.112,0.911,10.494,1.466,16.872c-6.729,1.488-12.619,2.794-18.341,4.061
			c-7.776,9.113-8.587,19.721-8.584,30.556c0,21.477-0.481,42.971,0.145,64.429c0.652,22.279-4.815,41.231-26.01,53.578
			c20.21,11.476,26.321,28.958,25.94,50.026c-0.399,22.102-0.496,44.229,0.111,66.325c0.251,9.204,2.658,18.354,4.197,28.257
			c7.725,2.55,14.092,4.652,21.336,7.048c0,4.544,0,9.4,0,14.295c-33.002,8.006-52.969-5.841-54.809-39.528
			c-1.169-21.414-0.258-42.942-0.355-64.419c-0.026-6.313,0.148-12.677-0.559-18.929
			C117.327,246.517,110.534,233.717,93.004,227.976z"/>
	</g>
	<g>
		<path d="M238.156,19.479h-8.819l-1.656,8.855h9.935l-0.504,2.556H224.19l4.607-24.261h12.383l-0.504,2.556h-9.358l-1.476,7.775
			h8.819L238.156,19.479z"/>
		<path d="M240.966,30.89l2.304-12.347c0.396-1.943,0.648-3.635,0.828-5.075h2.7l-0.468,3.419h0.072
			c1.584-2.447,3.924-3.815,6.479-3.815c2.052,0,4.391,1.188,4.391,4.824c0,0.792-0.144,1.908-0.324,2.808l-1.944,10.187h-2.952
			l1.908-10.079c0.108-0.648,0.216-1.476,0.216-2.232c0-1.728-0.684-3.023-2.736-3.023c-2.124,0-5.147,2.556-5.939,6.875
			l-1.583,8.459H240.966z"/>
		<path d="M266.633,13.468l-3.276,17.386c-0.54,2.88-1.188,4.715-2.231,5.867c-1.008,1.152-2.484,1.692-3.996,1.692
			c-0.756,0-1.404-0.036-1.98-0.216l0.36-2.34c0.324,0.108,0.792,0.144,1.368,0.144c1.512,0,2.7-0.936,3.383-4.535l3.42-17.998
			H266.633z M265.769,10.264c-1.044,0-1.764-0.828-1.764-1.944c0.036-1.188,0.936-2.124,2.052-2.124s1.872,0.828,1.872,1.944
			c-0.036,1.26-0.936,2.124-2.124,2.124H265.769z"/>
		<path d="M275.344,31.286c-4.355,0-6.803-3.24-6.803-7.163c0-5.759,3.996-11.051,9.647-11.051c4.715,0,6.839,3.563,6.839,7.235
			c0,5.399-3.816,10.979-9.647,10.979H275.344z M275.704,28.91c3.528,0,6.191-4.535,6.191-8.603c0-2.016-0.936-4.859-4.067-4.859
			c-3.744,0-6.227,4.571-6.227,8.567c0,2.844,1.583,4.895,4.067,4.895H275.704z"/>
		<path d="M290.572,13.468l1.728,9.359c0.396,2.016,0.612,3.312,0.792,4.607h0.072c0.468-1.116,0.972-2.34,1.872-4.284l4.464-9.683
			h3.167l-6.551,13.247c-1.872,3.779-3.636,6.839-6.011,9.179c-1.944,1.944-4.067,2.771-5.04,2.988l-0.756-2.556
			c0.756-0.288,2.016-0.756,3.204-1.692c1.188-0.9,2.448-2.304,3.384-4.032c0.144-0.252,0.144-0.468,0.072-0.792l-3.492-16.342
			H290.572z"/>
		<path d="M313,13.468l1.728,9.359c0.396,2.016,0.612,3.312,0.792,4.607h0.072c0.468-1.116,0.972-2.34,1.872-4.284l4.464-9.683
			h3.167l-6.551,13.247c-1.872,3.779-3.636,6.839-6.011,9.179c-1.944,1.944-4.067,2.771-5.04,2.988l-0.756-2.556
			c0.756-0.288,2.016-0.756,3.204-1.692c1.188-0.9,2.448-2.304,3.384-4.032c0.144-0.252,0.144-0.468,0.072-0.792l-3.492-16.342H313z
			"/>
		<path d="M331.755,31.286c-4.355,0-6.803-3.24-6.803-7.163c0-5.759,3.996-11.051,9.647-11.051c4.715,0,6.839,3.563,6.839,7.235
			c0,5.399-3.816,10.979-9.647,10.979H331.755z M332.115,28.91c3.528,0,6.191-4.535,6.191-8.603c0-2.016-0.936-4.859-4.067-4.859
			c-3.744,0-6.227,4.571-6.227,8.567c0,2.844,1.583,4.895,4.067,4.895H332.115z"/>
		<path d="M360.554,13.468l-2.375,12.347c-0.36,1.943-0.612,3.635-0.756,5.075h-2.7l0.468-3.275h-0.072
			c-1.584,2.268-3.852,3.671-6.155,3.671c-2.232,0-4.607-1.08-4.607-5.04c0-0.828,0.108-1.8,0.324-2.952l1.908-9.827h2.952
			l-1.835,9.719c-0.18,0.972-0.288,1.8-0.288,2.556c0,1.8,0.72,3.024,2.771,3.024c2.196,0,4.967-2.556,5.688-6.372l1.691-8.927
			H360.554z"/>
		<path d="M362.464,30.89l2.124-11.23c0.432-2.268,0.684-4.572,0.864-6.191h2.627c-0.108,1.224-0.252,2.412-0.468,3.78h0.108
			c1.152-2.376,2.988-4.176,5.327-4.176c0.288,0,0.612,0.036,0.864,0.072l-0.576,2.952c-0.216-0.036-0.504-0.072-0.828-0.072
			c-2.556,0-4.859,3.132-5.615,7.163l-1.44,7.703H362.464z"/>
		<path d="M384.603,13.468l0.612,9.791c0.144,2.16,0.108,3.275,0.072,4.679h0.108c0.396-1.116,1.043-2.627,1.908-4.355l5.147-10.115
			h2.628l1.08,9.935c0.18,1.908,0.288,3.384,0.288,4.536h0.072c0.468-1.404,0.936-2.736,1.656-4.427l4.715-10.043h3.023
			l-8.603,17.422h-2.771l-1.152-9.467c-0.18-1.62-0.252-3.096-0.252-4.644h-0.072c-0.72,1.692-1.224,2.988-2.016,4.536l-5.003,9.575
			h-2.772l-1.62-17.422H384.603z"/>
		<path d="M412.718,31.286c-4.355,0-6.803-3.24-6.803-7.163c0-5.759,3.996-11.051,9.647-11.051c4.715,0,6.839,3.563,6.839,7.235
			c0,5.399-3.816,10.979-9.647,10.979H412.718z M413.078,28.91c3.528,0,6.191-4.535,6.191-8.603c0-2.016-0.936-4.859-4.067-4.859
			c-3.744,0-6.227,4.571-6.227,8.567c0,2.844,1.583,4.895,4.067,4.895H413.078z"/>
		<path d="M424.49,30.89l2.124-11.23c0.432-2.268,0.684-4.572,0.864-6.191h2.627c-0.108,1.224-0.252,2.412-0.468,3.78h0.108
			c1.152-2.376,2.988-4.176,5.327-4.176c0.288,0,0.612,0.036,0.864,0.072l-0.576,2.952c-0.216-0.036-0.504-0.072-0.828-0.072
			c-2.556,0-4.859,3.132-5.615,7.163l-1.44,7.703H424.49z"/>
		<path d="M435.938,30.89l4.859-25.557h2.988l-3.06,16.018h0.072c0.504-0.612,1.152-1.26,1.62-1.728l6.12-6.155h3.708l-7.595,7.163
			l5.184,10.259h-3.276l-4.211-8.567l-2.196,1.944l-1.26,6.623H435.938z"/>
		<path d="M452.605,30.89l3.312-17.422h2.988l-3.312,17.422H452.605z M458.185,10.264c-1.044,0-1.764-0.828-1.764-1.944
			c0.036-1.188,0.936-2.124,2.052-2.124c1.116,0,1.872,0.828,1.872,1.944c-0.036,1.26-0.936,2.124-2.124,2.124H458.185z"/>
		<path d="M460.885,30.89l2.304-12.347c0.396-1.943,0.648-3.635,0.828-5.075h2.7l-0.468,3.419h0.072
			c1.584-2.447,3.924-3.815,6.479-3.815c2.052,0,4.391,1.188,4.391,4.824c0,0.792-0.144,1.908-0.324,2.808l-1.944,10.187h-2.952
			l1.908-10.079c0.108-0.648,0.216-1.476,0.216-2.232c0-1.728-0.684-3.023-2.736-3.023c-2.124,0-5.147,2.556-5.939,6.875
			l-1.583,8.459H460.885z"/>
		<path d="M480.253,34.849c1.044,0.684,2.808,1.152,4.607,1.152c2.952,0,5.255-1.476,6.263-6.191l0.576-2.627h-0.072
			c-1.548,2.484-3.671,3.708-6.047,3.708c-3.527,0-5.327-2.952-5.327-6.047c0-5.939,4.319-11.771,11.05-11.771
			c2.016,0,4.248,0.576,5.616,1.224l-2.7,14.398c-0.684,3.708-1.692,6.227-3.492,7.811c-1.764,1.476-4.104,1.908-6.083,1.908
			c-2.124,0-4.139-0.504-5.219-1.224L480.253,34.849z M493.643,16.06c-0.576-0.288-1.656-0.612-2.879-0.612
			c-4.355,0-7.379,4.571-7.379,8.891c-0.036,1.944,0.684,4.176,3.348,4.176c2.556,0,5.147-3.24,5.795-6.659L493.643,16.06z"/>
		<path d="M524.026,5.333l-3.852,20.049c-0.324,1.8-0.612,3.815-0.72,5.507h-2.736l0.468-3.456h-0.072
			c-1.583,2.484-3.779,3.852-6.299,3.852c-3.347,0-5.183-2.771-5.183-6.335c0-6.191,4.607-11.878,10.763-11.878
			c1.116,0,2.34,0.252,3.096,0.612l1.548-8.351H524.026z M518.987,16.204c-0.576-0.432-1.584-0.756-2.844-0.756
			c-4.175,0-7.415,4.463-7.415,9.107c0,2.087,0.72,4.283,3.275,4.283c2.304,0,5.076-2.627,5.832-6.551L518.987,16.204z"/>
		<path d="M535.979,30.89c0-1.044,0.18-2.7,0.396-4.5h-0.071c-1.908,3.636-4.32,4.896-6.768,4.896c-3.096,0-5.003-2.448-5.003-5.759
			c0-6.083,4.463-12.455,12.023-12.455c1.655,0,3.491,0.288,4.679,0.648l-1.764,9.107c-0.575,3.023-0.792,6.119-0.72,8.063H535.979z
			 M537.887,15.7c-0.433-0.144-1.045-0.252-2.053-0.252c-4.499,0-8.207,4.679-8.207,9.539c0,1.944,0.684,3.852,2.952,3.852
			c2.52,0,5.472-3.24,6.3-7.883L537.887,15.7z"/>
		<path d="M546.959,13.468l1.729,9.359c0.396,2.016,0.611,3.312,0.791,4.607h0.072c0.468-1.116,0.972-2.34,1.871-4.284l4.465-9.683
			h3.167l-6.552,13.247c-1.871,3.779-3.635,6.839-6.011,9.179c-1.944,1.944-4.067,2.771-5.04,2.988l-0.756-2.556
			c0.756-0.288,2.017-0.756,3.204-1.692c1.188-0.9,2.448-2.304,3.384-4.032c0.145-0.252,0.145-0.468,0.072-0.792l-3.492-16.342
			H546.959z"/>
		<path d="M569.711,13.468l0.611,9.791c0.145,2.16,0.108,3.275,0.072,4.679h0.108c0.396-1.116,1.044-2.627,1.907-4.355l5.147-10.115
			h2.628l1.08,9.935c0.18,1.908,0.288,3.384,0.288,4.536h0.071c0.469-1.404,0.937-2.736,1.656-4.427l4.715-10.043h3.024
			l-8.604,17.422h-2.771l-1.151-9.467c-0.181-1.62-0.252-3.096-0.252-4.644h-0.072c-0.72,1.692-1.224,2.988-2.016,4.536
			l-5.004,9.575h-2.771l-1.619-17.422H569.711z"/>
		<path d="M591.022,30.89l3.312-17.422h2.987L594.01,30.89H591.022z M596.602,10.264c-1.044,0-1.764-0.828-1.764-1.944
			c0.036-1.188,0.936-2.124,2.052-2.124s1.872,0.828,1.872,1.944c-0.036,1.26-0.937,2.124-2.124,2.124H596.602z"/>
		<path d="M606.97,9.292l-0.792,4.175h4.176l-0.468,2.34h-4.176l-1.584,8.495c-0.216,0.972-0.36,1.872-0.36,2.772
			c0,1.044,0.505,1.692,1.656,1.692c0.54,0,1.008-0.036,1.404-0.144l-0.145,2.339c-0.54,0.216-1.439,0.324-2.304,0.324
			c-2.628,0-3.672-1.584-3.672-3.384c0-1.008,0.145-2.016,0.396-3.275l1.691-8.819h-2.483l0.432-2.34h2.484l0.611-3.204
			L606.97,9.292z"/>
		<path d="M610.534,30.89l4.859-25.557h2.987l-2.159,11.194h0.072c1.476-2.124,3.599-3.456,6.227-3.456
			c1.979,0,4.319,1.188,4.319,4.68c0,0.9-0.107,2.052-0.288,2.916l-1.943,10.223h-2.987l1.943-10.079
			c0.108-0.612,0.216-1.44,0.216-2.412c0-1.584-0.756-2.844-2.699-2.844c-2.304,0-5.22,2.7-5.939,6.587l-1.62,8.747H610.534z"/>
		<path fill="#0099CC" d="M641.205,30.89l-3.023-24.261h5.363l1.08,11.554c0.252,2.592,0.432,4.932,0.575,7.451h0.072
			c0.9-2.375,2.052-4.967,3.239-7.487l5.436-11.519h5.796L647.216,30.89H641.205z"/>
		<path fill="#0099CC" d="M657.765,30.89l3.348-17.602h5.147l-3.312,17.602H657.765z M664.316,10.984c-1.513,0-2.628-1.08-2.628-2.7
			c0-1.872,1.476-3.132,3.167-3.132c1.62,0,2.772,1.044,2.772,2.7c0,1.98-1.512,3.132-3.276,3.132H664.316z"/>
		<path fill="#0099CC" d="M680.228,30.35c-1.116,0.54-2.916,0.936-5.004,0.936c-4.355,0-7.415-2.664-7.415-7.235
			c0-6.263,4.787-11.158,11.482-11.158c1.512,0,2.808,0.288,3.6,0.612l-1.296,3.959c-0.611-0.252-1.331-0.432-2.375-0.432
			c-3.672,0-5.976,3.132-5.976,6.443c0,2.448,1.548,3.671,3.455,3.671c1.513,0,2.592-0.36,3.492-0.72L680.228,30.35z"/>
		<path fill="#0099CC" d="M693.331,8.537l-0.899,4.751h3.779l-0.792,3.959h-3.743l-1.188,5.939c-0.144,0.72-0.287,1.62-0.287,2.232
			c0,0.864,0.359,1.476,1.512,1.476c0.432,0,0.972,0,1.403-0.072l-0.576,4.067c-0.684,0.252-1.979,0.396-3.06,0.396
			c-3.131,0-4.607-1.584-4.607-3.815c0-0.936,0.108-1.908,0.396-3.24l1.332-6.983h-2.232l0.721-3.959h2.268l0.647-3.312
			L693.331,8.537z"/>
		<path fill="#0099CC" d="M703.772,31.286c-4.5,0-7.487-2.916-7.487-7.271c0-6.083,4.247-11.123,10.511-11.123
			c4.751,0,7.487,3.239,7.487,7.271c0,6.407-4.428,11.123-10.475,11.123H703.772z M704.456,27.326c2.808,0,4.428-4.14,4.428-7.127
			c0-1.656-0.72-3.348-2.771-3.348c-2.988,0-4.5,4.319-4.5,7.055c0,2.052,1.044,3.419,2.808,3.419H704.456z"/>
		<path fill="#0099CC" d="M715.832,30.89l2.016-10.475c0.469-2.664,0.721-5.615,0.9-7.127h4.463
			c-0.071,1.188-0.18,2.375-0.323,3.635h0.144c1.224-2.375,3.168-4.031,5.579-4.031c0.36,0,0.685,0.036,0.973,0.036l-1.008,5.076
			c-0.217-0.036-0.505-0.036-0.792-0.036c-3.276,0-4.859,2.916-5.508,6.371l-1.224,6.551H715.832z"/>
		<path fill="#0099CC" d="M736.388,13.288l1.079,7.667c0.252,1.835,0.433,3.095,0.576,4.211h0.072
			c0.396-1.08,0.792-2.232,1.548-4.14l3.203-7.739h5.472l-6.299,12.634c-2.34,4.679-4.428,7.883-6.768,10.079
			c-2.052,1.944-4.499,2.808-5.651,2.988l-1.151-4.428c0.827-0.252,1.979-0.684,2.987-1.404c1.188-0.828,2.195-1.872,2.88-3.06
			c0.144-0.252,0.144-0.468,0.071-0.828l-3.455-15.982H736.388z"/>
		<path fill="#0099CC" d="M747.728,30.89l4.896-25.557h5.184l-4.896,25.557H747.728z"/>
		<path fill="#0099CC" d="M757.268,30.89l3.348-17.602h5.147l-3.312,17.602H757.268z M763.819,10.984c-1.513,0-2.628-1.08-2.628-2.7
			c0-1.872,1.476-3.132,3.167-3.132c1.62,0,2.772,1.044,2.772,2.7c0,1.98-1.512,3.132-3.276,3.132H763.819z"/>
		<path fill="#0099CC" d="M766.808,30.89l2.231-11.878c0.433-2.232,0.721-4.14,0.937-5.723h4.571l-0.324,2.916h0.072
			c1.655-2.268,3.852-3.312,6.155-3.312c2.88,0,4.535,1.764,4.535,4.823c0,0.792-0.144,2.088-0.288,2.952l-1.943,10.223h-5.184
			l1.836-9.755c0.108-0.612,0.18-1.296,0.18-1.944c0-1.26-0.432-2.124-1.764-2.124c-1.691,0-3.636,2.124-4.392,6.011l-1.439,7.811
			H766.808z"/>
		<path fill="#0099CC" d="M787.075,30.89l4.859-25.557h5.147l-2.916,15.298h0.072c0.54-0.684,1.08-1.368,1.584-1.979l4.499-5.363
			h6.407l-7.486,7.271l4.896,10.331h-5.796l-3.096-7.523l-1.943,1.872l-1.08,5.651H787.075z"/>
		<path d="M817.279,31.286c-1.225,0-2.088-0.972-2.088-2.268c0-1.296,0.899-2.268,2.159-2.268s2.124,0.936,2.124,2.268
			c0,1.295-0.864,2.268-2.16,2.268H817.279z"/>
		<path d="M824.73,31.286c-1.225,0-2.088-0.972-2.088-2.268c0-1.296,0.899-2.268,2.159-2.268s2.124,0.936,2.124,2.268
			c0,1.295-0.864,2.268-2.16,2.268H824.73z"/>
	</g>
</g>
<g id="Layer_4">
	<g>
		<g>
			<g>
				<path fill="#0099CC" d="M607.433,350.917V154.159h45.178v13.578h-28.389v169.602h28.389v13.578H607.433z"/>
			</g>
			<g>
				<path fill="#0099CC" d="M794.452,350.917v-13.578h28.389V167.737h-28.389v-13.578h45.178v196.758H794.452z"/>
			</g>
		</g>
		<g>
			<g>
				<path fill="#0099CC" d="M210.37,350.917V154.159h45.178v13.578h-28.389v169.602h28.389v13.578H210.37z"/>
			</g>
			<g>
				<path fill="#0099CC" d="M397.39,350.917v-13.578h28.389V167.737H397.39v-13.578h45.178v196.758H397.39z"/>
			</g>
		</g>
		<g>
			<path d="M534.019,247.829l52.565-24.421v11.608l-39.753,17.413v0.219l39.753,17.413v11.608l-52.565-24.421V247.829z"/>
		</g>
		<g>
			<path d="M515.695,257.247l-52.565,24.421V270.06l39.753-17.413v-0.219l-39.753-17.413v-11.608l52.565,24.421V257.247z"/>
		</g>
	</g>
</g>
<g id="Layer_5">
	<g>
		<g>
			<path fill-rule="evenodd" clip-rule="evenodd" d="M685.118,557.311c0,7.426,0,13.344,0,19.329
				c-98.03,74.006-223.318,74.616-320.236,1.412c0-5.688,0-11.999,0-20.334C472.225,617.484,578.386,616.548,685.118,557.311z"/>
		</g>
		<path fill-rule="evenodd" clip-rule="evenodd" d="M451.453,483.601c3.039,0,5.133,0,7.331,0c0.783,2.807,1.503,5.372,2.127,7.605
			c3.188,3.434,7.037,3.604,10.883,3.626c9.85,0.058,19.702,0.061,29.553,0.061c9.426-0.003,17.894,2.043,23.244,11.469
			c5.428-9.54,14.075-11.343,23.448-11.43c10.123-0.094,20.248-0.022,30.373-0.104c3.848-0.029,7.738-0.146,10.746-3.952
			c0.334-1.967,0.736-4.337,1.205-7.111c2.42,0,4.777,0,7.121,0c3.855,14.548-2.92,23.623-17.852,23.807
			c-9.576,0.119-19.154,0.005-28.732,0.044c-2.457,0.01-4.984-0.119-7.361,0.375c-6.59,1.367-12.891,3.357-14.9,11.021
			c-2.604,0.13-4.744,0.236-7.232,0.361c-4.2-9.367-12.268-11.721-21.532-11.75c-9.85-0.033-19.709,0.2-29.55-0.137
			c-3.707-0.129-7.606-0.989-10.999-2.478c-5.126-2.249-7.862-6.605-7.872-12.4C451.45,489.888,451.453,487.167,451.453,483.601z"/>
	</g>
</g>
</svg>
